<?xml version="1.0" encoding="UTF-8"?>
<!DOCTYPE svg PUBLIC "-//W3C//DTD SVG 1.1//EN" "http://www.w3.org/Graphics/SVG/1.1/DTD/svg11.dtd">
<svg xmlns="http://www.w3.org/2000/svg" version="1.1" width="100px" height="100px" style="shape-rendering:geometricPrecision; text-rendering:geometricPrecision; image-rendering:optimizeQuality; fill-rule:evenodd; clip-rule:evenodd" xmlns:xlink="http://www.w3.org/1999/xlink">
<g><path style="opacity:0.844" fill="#fefffe" d="M 39.5,3.5 C 67.9223,0.452161 86.4223,12.4522 95,39.5C 98.5361,67.9428 86.7027,86.4428 59.5,95C 31.0572,98.5361 12.5572,86.7027 4,59.5C 0.672469,31.0314 12.5058,12.3647 39.5,3.5 Z M 40.5,8.5 C 63.3241,6.0707 79.3241,15.2374 88.5,36C 87.9896,37.8261 87.1562,37.9928 86,36.5C 84.4624,32.0642 81.9624,28.3976 78.5,25.5C 75.4662,26.5671 72.4662,27.7337 69.5,29C 70.713,31.6865 71.3797,34.5198 71.5,37.5C 70.5,37.5 69.5,37.5 68.5,37.5C 68.4249,34.7938 68.0916,32.1272 67.5,29.5C 62.1951,30.1942 56.8617,30.5276 51.5,30.5C 51.5,32.8333 51.5,35.1667 51.5,37.5C 50.1667,37.5 48.8333,37.5 47.5,37.5C 47.5,35.1667 47.5,32.8333 47.5,30.5C 42.1383,30.5276 36.8049,30.1942 31.5,29.5C 30.9084,32.1272 30.5751,34.7938 30.5,37.5C 29.5,37.5 28.5,37.5 27.5,37.5C 27.6203,34.5198 28.287,31.6865 29.5,29C 26.5338,27.7337 23.5338,26.5671 20.5,25.5C 18.9121,26.0096 17.7455,27.0096 17,28.5C 15.6274,31.4125 14.1274,34.2458 12.5,37C 11.5165,37.5908 10.8499,37.2575 10.5,36C 15.9253,21.7375 25.9253,12.5708 40.5,8.5 Z M 8.5,41.5 C 9.5,41.5 10.5,41.5 11.5,41.5C 13.7709,56.1012 16.1042,56.1012 18.5,41.5C 20.1439,41.2865 21.6439,41.6198 23,42.5C 24.1365,46.2432 25.4698,49.9099 27,53.5C 28.2695,49.8586 29.4361,46.1919 30.5,42.5C 31.5,41.1667 32.5,41.1667 33.5,42.5C 31.7526,47.332 30.0859,52.1653 28.5,57C 27.365,57.7494 26.365,57.5827 25.5,56.5C 23.9023,52.8736 22.4023,49.2069 21,45.5C 19.0081,49.3082 17.5081,53.3082 16.5,57.5C 15.1667,57.5 13.8333,57.5 12.5,57.5C 11.3702,52.1116 10.0369,46.7783 8.5,41.5 Z M 36.5,42.5 C 37.5417,41.2089 38.7083,41.2089 40,42.5C 40.8631,45.9592 42.0297,49.2926 43.5,52.5C 45.0265,49.256 46.3598,45.9227 47.5,42.5C 48.8333,41.1667 50.1667,41.1667 51.5,42.5C 52.7157,46.3213 54.2157,49.9879 56,53.5C 57,49.8333 58,46.1667 59,42.5C 60.0495,41.4829 61.2161,41.3162 62.5,42C 60.6066,46.3469 59.1066,50.8469 58,55.5C 57.0475,57.5922 55.7141,57.9255 54,56.5C 52.5952,52.7834 51.0952,49.1168 49.5,45.5C 47.9048,49.1168 46.4048,52.7834 45,56.5C 43.8173,57.731 42.6507,57.731 41.5,56.5C 40.1236,51.619 38.4569,46.9524 36.5,42.5 Z M 65.5,41.5 C 66.675,41.281 67.675,41.6143 68.5,42.5C 69.3674,45.9353 70.534,49.2686 72,52.5C 73.7157,49.3599 75.049,46.0266 76,42.5C 77.3561,41.6198 78.8561,41.2865 80.5,41.5C 82.9119,57.4182 85.2453,57.4182 87.5,41.5C 88.5,41.5 89.5,41.5 90.5,41.5C 88.9631,46.7783 87.6298,52.1116 86.5,57.5C 85.0222,57.762 83.6888,57.4287 82.5,56.5C 81.2843,52.6787 79.7843,49.0121 78,45.5C 76.2157,49.0121 74.7157,52.6787 73.5,56.5C 72.635,57.5827 71.635,57.7494 70.5,57C 68.4485,51.962 66.7819,46.7953 65.5,41.5 Z M 10.5,61.5 C 11.4959,61.4142 12.3292,61.7476 13,62.5C 14.5376,66.9358 17.0376,70.6024 20.5,73.5C 23.5338,72.4329 26.5338,71.2663 29.5,70C 28.287,67.3135 27.6203,64.4802 27.5,61.5C 28.5,61.5 29.5,61.5 30.5,61.5C 30.5751,64.2062 30.9084,66.8728 31.5,69.5C 36.8049,68.8058 42.1383,68.4724 47.5,68.5C 47.5,66.1667 47.5,63.8333 47.5,61.5C 48.8333,61.5 50.1667,61.5 51.5,61.5C 51.5,63.8333 51.5,66.1667 51.5,68.5C 56.8617,68.4724 62.1951,68.8058 67.5,69.5C 68.0916,66.8728 68.4249,64.2062 68.5,61.5C 69.5,61.5 70.5,61.5 71.5,61.5C 71.3797,64.4802 70.713,67.3135 69.5,70C 72.4662,71.2663 75.4662,72.4329 78.5,73.5C 80.0879,72.9904 81.2545,71.9904 82,70.5C 83.3459,67.13 85.1792,64.13 87.5,61.5C 87.8333,62 88.1667,62.5 88.5,63C 81.3223,80.3295 68.3223,89.8295 49.5,91.5C 35.1314,90.2351 23.6314,83.9018 15,72.5C 12.9281,69.0288 11.4281,65.3621 10.5,61.5 Z"/></g>
<g><path style="opacity:0.884" fill="#fefffe" d="M 44.5,11.5 C 45.5,11.5 46.5,11.5 47.5,11.5C 47.5,16.8333 47.5,22.1667 47.5,27.5C 43.8183,27.6653 40.1516,27.4986 36.5,27C 35.376,26.7508 34.376,26.2508 33.5,25.5C 35.7274,19.6167 39.3941,14.95 44.5,11.5 Z"/></g>
<g><path style="opacity:0.883" fill="#fefffe" d="M 51.5,11.5 C 58.4204,13.7535 63.0871,18.4202 65.5,25.5C 64.624,26.2508 63.624,26.7508 62.5,27C 58.8484,27.4986 55.1817,27.6653 51.5,27.5C 51.5,22.1667 51.5,16.8333 51.5,11.5 Z"/></g>
<g><path style="opacity:0.685" fill="#fefffe" d="M 34.5,13.5 C 35.552,13.3505 36.552,13.5172 37.5,14C 34.6673,17.3281 32.334,20.9948 30.5,25C 27.5276,25.2878 24.861,24.4545 22.5,22.5C 25.953,18.706 29.953,15.706 34.5,13.5 Z"/></g>
<g><path style="opacity:0.685" fill="#fefffe" d="M 61.5,14.5 C 67.4998,14.6727 72.4998,17.3393 76.5,22.5C 74.139,24.4545 71.4724,25.2878 68.5,25C 66.7632,21.0039 64.4299,17.5039 61.5,14.5 Z"/></g>
<g><path style="opacity:0.879" fill="#fefffe" d="M 36.5,71.5 C 40.1667,71.5 43.8333,71.5 47.5,71.5C 47.5,76.8333 47.5,82.1667 47.5,87.5C 40.5796,85.2465 35.9129,80.5798 33.5,73.5C 34.6016,72.8243 35.6016,72.1577 36.5,71.5 Z"/></g>
<g><path style="opacity:0.88" fill="#fefffe" d="M 51.5,71.5 C 55.1817,71.3347 58.8484,71.5014 62.5,72C 63.624,72.2492 64.624,72.7492 65.5,73.5C 63.0871,80.5798 58.4204,85.2465 51.5,87.5C 51.5,82.1667 51.5,76.8333 51.5,71.5 Z"/></g>
<g><path style="opacity:0.693" fill="#fefffe" d="M 27.5,73.5 C 28.8221,73.33 29.9887,73.6634 31,74.5C 32.5272,78.3862 34.6939,81.8862 37.5,85C 31.8581,84.2612 27.0248,81.7612 23,77.5C 22.3123,76.6683 22.479,76.0016 23.5,75.5C 25.0255,75.0057 26.3588,74.339 27.5,73.5 Z"/></g>
<g><path style="opacity:0.685" fill="#fefffe" d="M 68.5,73.5 C 78.2699,74.4102 78.9366,77.2436 70.5,82C 67.7025,83.9137 64.7025,84.9137 61.5,85C 64.4723,81.5553 66.8057,77.722 68.5,73.5 Z"/></g>
</svg>
