 <svg  version="1.0" xmlns="http://www.w3.org/2000/svg"  width="300.000000pt" height="225.000000pt" viewBox="0 0 300.000000 225.000000"  preserveAspectRatio="xMidYMid meet">  <g transform="translate(0.000000,225.000000) scale(0.100000,-0.100000)" fill="#ec1818" stroke="none"> <path d="M1323 2193 c-47 -73 -133 -234 -133 -250 0 -6 8 -9 18 -6 16 4 18 0 14 -27 -5 -32 17 -59 48 -59 8 0 3 7 -12 15 -31 16 -33 25 -15 68 l12 29 221 1 c213 1 222 0 237 -20 30 -39 25 -55 -23 -80 -51 -26 -131 -38 -240 -36 -49 0 -68 -2 -55 -8 18 -8 106 -6 227 4 27 3 67 15 90 28 35 19 43 28 41 50 -1 19 2 25 12 22 7 -3 28 2 45 11 23 12 30 13 24 3 -9 -14 -14 -38 -9 -38 2 0 18 21 36 48 43 63 67 82 109 82 93 0 141 -131 101 -275 -16 -57 -84 -166 -130 -209 -17 -17 -31 -34 -31 -39 0 -5 12 2 26 17 15 14 29 26 33 26 3 0 20 20 36 45 17 24 34 45 38 45 5 0 5 5 2 10 -3 6 -1 10 5 10 6 0 9 4 5 9 -3 5 -1 12 5 16 19 12 10 -19 -17 -59 -32 -47 -123 -140 -172 -176 -64 -46 -76 -58 -69 -65 11 -11 126 76 189 141 97 103 139 196 139 315 0 165 -89 260 -203 215 -50 -20 -72 -38 -111 -88 -29 -39 -46 -48 -46 -25 -1 28 -113 233 -155 282 -20 23 -25 25 -20 10 3 -15 0 -21 -13 -23 -40 -4 -54 -9 -62 -21 -5 -9 -18 -11 -39 -6 -42 9 -39 20 4 21 21 0 43 8 53 19 16 17 16 17 -3 9 -26 -11 -85 -10 -109 1 -16 7 -18 5 -12 -10 4 -11 4 -16 1 -13 -4 4 -18 3 -31 -2 -27 -10 -34 6 -12 28 9 9 9 12 0 12 -7 0 -29 -26 -49 -57z m114 -14 c36 -22 62 -22 120 2 30 12 34 11 47 -6 14 -19 87 -178 83 -181 -12 -11 -377 -22 -377 -11 0 11 -52 -3 -71 -19 -14 -12 -15 -11 -11 16 2 17 8 30 12 30 4 0 15 19 26 43 10 23 29 53 41 66 l22 25 -6 -25 c-5 -23 -5 -24 10 -4 9 11 17 24 17 28 0 14 32 57 42 57 6 0 26 -9 45 -21z"/> <path d="M1527 2136 c-15 -14 -27 -35 -26 -48 l0 -23 9 23 c5 12 18 32 29 44 18 18 22 19 37 7 15 -12 17 -12 12 1 -8 24 -32 23 -61 -4z"/> <path d="M1378 2133 c-27 -33 -32 -48 -6 -25 13 12 28 19 31 15 4 -3 7 1 7 10 0 22 -13 22 -32 0z"/> <path d="M1670 2225 c0 -4 15 -33 34 -64 19 -31 46 -80 60 -109 l27 -53 19 23 c20 26 18 37 -4 19 -15 -13 -24 -5 -31 26 -7 39 -105 186 -105 158z"/> <path d="M1218 2133 c-14 -16 -29 -42 -33 -60 -8 -37 -24 -35 -67 9 -15 16 -28 26 -28 22 0 -3 -6 -1 -13 5 -8 6 -17 8 -20 4 -4 -3 -7 -2 -7 4 0 20 -100 15 -146 -8 -109 -52 -163 -245 -114 -399 12 -38 21 -72 20 -76 -1 -4 3 -10 8 -13 5 -3 21 -26 36 -50 l28 -44 -26 -53 c-14 -29 -26 -57 -26 -62 0 -11 -24 -22 -49 -22 -22 0 -80 -61 -126 -133 -50 -80 -54 -147 -12 -228 27 -53 100 -150 78 -102 -39 80 -81 201 -81 232 0 37 56 132 113 193 23 24 29 27 53 18 28 -11 44 -1 44 28 0 19 29 74 53 100 l20 22 -20 23 c-33 36 -84 132 -99 189 -30 113 -8 246 52 317 33 40 102 65 151 56 53 -10 106 -39 137 -76 15 -17 28 -30 29 -28 17 28 78 159 74 159 -2 0 -15 -12 -29 -27z"/> <path d="M2085 2069 c43 -38 74 -102 82 -170 3 -27 10 -49 15 -49 10 0 0 88 -12 105 -3 6 -13 26 -20 45 -13 33 -74 100 -92 100 -5 0 7 -14 27 -31z"/> <path d="M940 2063 c-26 -10 -61 -47 -83 -88 -18 -33 -22 -57 -22 -140 0 -90 3 -106 29 -159 16 -32 47 -81 70 -110 l42 -51 -29 -24 c-33 -27 -61 -85 -72 -143 -4 -21 -8 -38 -10 -38 -1 0 -19 7 -38 15 l-36 15 -34 -43 c-19 -23 -45 -61 -59 -85 -31 -54 -28 -77 38 -227 46 -105 72 -143 62 -92 -3 15 0 28 5 30 6 2 2 12 -9 23 -11 11 -19 24 -17 30 1 5 -8 38 -21 73 -13 36 -25 58 -28 51 -3 -11 -6 -10 -11 3 -3 9 -2 17 3 17 6 0 10 8 10 18 0 13 -2 14 -9 4 -7 -11 -10 -10 -15 3 -8 23 -8 25 7 25 7 0 23 17 35 39 12 21 28 44 36 50 8 7 12 22 9 34 -3 13 -1 18 4 11 4 -6 16 -10 26 -8 9 1 15 -2 11 -7 -3 -5 -10 -7 -15 -4 -5 4 -9 4 -9 1 0 -3 30 -21 68 -39 l67 -34 45 18 c25 10 70 18 102 18 l56 1 47 -80 c26 -44 51 -78 56 -75 4 3 6 12 2 21 -3 8 -8 12 -11 10 -8 -9 -33 45 -25 57 3 6 1 7 -5 3 -7 -4 -12 -1 -12 9 0 24 18 9 39 -33 10 -20 28 -45 40 -56 11 -10 18 -23 15 -27 -3 -5 0 -9 5 -9 6 0 11 -7 11 -16 0 -8 5 -12 10 -9 6 3 10 2 10 -4 0 -18 119 -149 142 -157 17 -5 27 0 45 22 13 16 23 36 23 44 0 8 -12 -2 -27 -23 l-26 -37 -30 27 c-81 78 -267 354 -267 398 0 12 7 42 16 67 l15 46 -35 52 c-43 63 -44 78 -8 113 34 33 49 25 22 -11 -11 -13 -20 -28 -20 -32 0 -26 220 -90 308 -90 59 0 192 37 234 65 32 21 37 30 32 50 -8 31 6 32 28 1 16 -22 16 -26 -13 -87 -17 -35 -41 -77 -53 -94 -12 -16 -26 -37 -31 -45 -8 -13 -7 -13 11 0 10 8 29 23 41 33 l21 19 4 -59 c4 -68 -8 -93 -90 -201 -30 -40 -53 -75 -50 -77 5 -5 59 51 117 121 13 16 30 44 38 62 7 18 20 35 29 39 19 7 10 57 -18 97 l-20 28 27 69 c29 74 26 95 -19 124 -15 10 -23 26 -24 47 -1 22 -10 39 -34 60 -18 15 -30 29 -25 29 10 2 14 3 82 23 80 23 156 55 178 74 29 26 13 23 -45 -7 -70 -37 -206 -79 -286 -87 -34 -4 -62 -10 -62 -15 0 -4 10 -6 23 -4 113 20 134 3 27 -22 -81 -18 -160 -21 -234 -10 -44 7 -106 31 -106 41 0 5 82 -1 135 -9 20 -3 25 -2 15 4 -8 5 -46 11 -85 15 -38 3 -81 8 -95 11 -24 5 -24 5 -2 -4 28 -13 28 -17 -8 -53 -17 -17 -30 -39 -28 -49 2 -11 -11 -30 -31 -47 -43 -36 -45 -75 -8 -130 15 -21 27 -40 27 -43 0 -3 -24 -5 -54 -5 -37 1 -52 5 -49 13 3 6 12 14 21 16 10 3 4 5 -13 6 -36 1 -102 -16 -110 -29 -3 -5 12 -3 34 5 63 22 58 -1 -4 -24 -31 -12 -60 -21 -66 -21 -6 0 -7 -4 -4 -10 4 -6 19 -4 42 5 34 14 60 12 37 -3 -6 -4 -13 -15 -17 -24 -3 -10 -15 -18 -26 -18 -12 0 -23 -11 -30 -31 -15 -44 -14 -49 9 -49 14 0 26 14 41 45 32 69 94 113 145 103 32 -6 25 -25 -14 -36 -21 -6 -51 -25 -67 -42 -35 -36 -27 -40 11 -5 25 24 74 35 74 17 0 -17 -46 -69 -58 -65 -14 5 -124 -27 -132 -38 -7 -10 -34 -6 -51 8 -8 6 -24 14 -36 17 -13 4 -23 12 -23 17 0 16 23 10 47 -13 13 -12 26 -18 30 -14 5 4 -2 16 -15 26 l-22 18 37 32 38 32 -32 -7 c-34 -7 -37 -3 -23 30 6 13 9 15 9 5 1 -8 9 1 20 20 23 45 76 81 107 75 13 -3 36 -7 50 -10 25 -6 25 -5 9 11 -11 11 -34 17 -65 18 -27 0 -47 3 -44 5 2 2 -12 25 -32 52 -25 35 -31 49 -22 55 7 4 10 4 6 -1 -4 -4 3 -16 16 -26 40 -32 40 -21 1 22 -20 23 -46 62 -58 88 -11 25 -26 51 -32 56 -7 6 -15 21 -18 34 -3 13 -2 20 3 15 4 -5 10 -18 12 -29 2 -11 4 12 4 51 1 78 22 150 54 179 15 13 30 16 60 12 23 -3 38 -1 34 4 -3 5 -12 9 -20 9 -8 0 -13 4 -10 9 9 14 46 0 46 -18 1 -15 90 -121 90 -107 0 13 -35 61 -60 83 -20 17 -21 21 -7 19 9 -1 25 -12 35 -25 29 -38 62 -71 73 -71 5 0 -8 23 -28 50 -54 73 -145 114 -203 93z m341 -374 c11 -5 59 -17 107 -25 72 -13 101 -14 167 -4 44 7 95 18 113 25 31 13 33 13 46 -13 12 -23 12 -31 0 -52 -7 -14 -13 -35 -14 -46 0 -22 -46 -47 -118 -64 -29 -7 -33 -5 -38 17 -8 31 -1 37 24 24 29 -15 60 -15 44 1 -9 9 -5 16 18 30 17 10 30 24 30 33 0 9 6 12 15 9 10 -4 15 0 15 10 0 31 -33 30 -93 -3 -56 -31 -59 -32 -78 -15 -18 16 -19 16 -19 -4 0 -12 4 -22 8 -22 4 0 9 -20 10 -44 2 -48 -11 -58 -61 -49 -23 5 -24 7 -15 39 5 19 6 38 3 43 -3 5 -1 12 5 16 5 3 10 13 10 22 0 14 -2 14 -19 -1 -19 -17 -22 -16 -78 15 -60 33 -93 34 -93 3 0 -10 6 -14 14 -11 8 3 16 -2 19 -14 3 -10 20 -25 38 -33 29 -12 30 -14 13 -24 -18 -11 -18 -11 -1 -12 10 0 27 5 39 11 25 13 31 8 23 -24 -6 -23 -9 -24 -45 -16 -57 13 -110 41 -110 58 0 8 -5 29 -11 46 -11 29 -6 85 7 85 3 0 14 -5 25 -11z m98 -83 c15 -8 20 -16 13 -20 -13 -8 -52 10 -52 24 0 13 10 12 39 -4z m-212 -298 c0 -7 8 -30 17 -50 19 -43 11 -48 -21 -14 -26 27 -29 46 -11 64 15 15 15 15 15 0z"/> <path d="M1933 1985 c-20 -19 -22 -23 -6 -13 12 7 25 9 29 5 12 -11 -34 -54 -82 -77 -24 -11 -44 -25 -44 -30 0 -6 -6 -10 -14 -10 -8 0 -16 -5 -18 -11 -2 -5 -10 -11 -18 -13 -39 -8 -76 -20 -87 -29 -7 -5 -13 -7 -13 -3 0 3 -16 -1 -36 -9 -20 -8 -55 -16 -78 -17 -39 -1 -39 -1 -7 -5 19 -3 66 3 105 13 183 45 316 126 316 193 0 31 -16 33 -47 6z"/> <path d="M985 1960 c-10 -16 59 -86 110 -112 32 -17 37 -17 26 -4 -7 9 -19 16 -26 16 -7 0 -32 18 -56 39 -39 35 -42 40 -25 47 14 5 24 1 38 -15 20 -26 25 -15 6 12 -17 21 -64 32 -73 17z"/> <path d="M2031 1960 c0 -9 -10 -32 -20 -53 -10 -20 -15 -37 -9 -37 13 0 40 69 35 88 -4 14 -5 14 -6 2z"/> <path d="M1435 1930 c-149 -4 -170 -7 -173 -22 -2 -9 5 -21 16 -27 17 -9 18 -7 15 13 -5 23 -3 24 44 19 26 -2 56 -4 66 -4 15 0 16 -3 7 -14 -12 -15 8 -14 110 7 30 6 63 12 73 13 9 1 23 7 29 13 9 9 9 12 -2 10 -8 -1 -91 -5 -185 -8z"/> <path d="M954 1915 c3 -9 6 -24 6 -32 0 -9 3 -13 6 -10 4 4 28 -9 54 -28 44 -32 140 -80 140 -70 0 3 -26 17 -57 32 -32 15 -80 49 -107 76 -27 27 -46 41 -42 32z"/> <path d="M915 1805 c7 -62 22 -111 31 -103 2 3 0 18 -6 33 -6 16 -11 48 -12 72 0 24 -5 46 -11 50 -6 4 -7 -14 -2 -52z"/> <path d="M2163 1757 c-26 -135 -113 -256 -257 -356 -51 -35 -56 -41 -34 -41 14 0 31 -7 39 -16 8 -10 21 -13 37 -9 16 4 31 0 42 -10 17 -15 22 -14 79 14 92 47 112 43 167 -31 25 -35 54 -80 65 -101 19 -37 19 -41 4 -95 -9 -31 -30 -86 -46 -121 -24 -52 -26 -61 -10 -47 10 9 33 43 50 75 38 71 42 146 12 201 -11 19 -24 45 -30 56 -5 12 -30 43 -56 69 -42 43 -49 47 -81 42 -20 -3 -53 -15 -73 -25 -34 -18 -63 -20 -124 -9 -26 5 -45 26 -30 35 49 31 151 138 186 197 57 94 66 116 73 180 9 74 1 70 -13 -8z"/> <path d="M1285 1781 c19 -9 93 -15 84 -7 -2 2 -26 6 -54 10 -34 4 -43 3 -30 -3z"/> <path d="M950 1685 c0 -10 79 -113 93 -122 11 -7 2 11 -19 37 -7 8 -27 32 -44 54 -16 21 -30 35 -30 31z"/> <path d="M1695 1478 c-16 -13 -49 -31 -74 -40 -40 -15 -41 -17 -14 -14 31 4 32 3 18 -18 -9 -13 -25 -28 -38 -35 -13 -7 -29 -22 -36 -33 -18 -30 100 69 124 103 25 36 38 37 24 2 -8 -22 -8 -25 2 -16 7 7 13 20 14 30 0 10 4 24 9 31 11 18 2 15 -29 -10z"/> <path d="M1240 1475 c0 -22 56 -95 72 -95 5 0 4 9 -2 19 -14 27 -13 33 8 28 9 -3 39 -10 65 -17 28 -8 46 -18 43 -24 -2 -6 -12 -28 -21 -49 -9 -22 -11 -36 -6 -32 6 3 11 11 11 17 0 5 13 29 29 53 l29 43 -87 17 c-47 9 -98 23 -113 31 -16 8 -28 12 -28 9z"/> <path d="M1236 1340 c-4 -25 5 -47 50 -122 65 -107 125 -197 167 -251 28 -36 30 -37 48 -21 26 23 24 32 -5 29 -21 -3 -34 12 -93 103 -119 183 -143 224 -143 242 0 6 12 16 26 22 23 11 24 13 7 19 -36 15 -50 10 -57 -21z"/> <path d="M1462 1334 c-18 -14 -32 -32 -32 -40 0 -8 3 -13 8 -11 4 3 6 -27 4 -66 -2 -48 2 -86 12 -112 l16 -40 -8 45 c-13 81 -7 153 16 200 12 24 20 45 19 46 -1 2 -17 -8 -35 -22z"/> <path d="M1683 1328 c-23 -11 -31 -28 -14 -28 9 0 6 -48 -4 -77 -2 -7 -1 -13 3 -13 11 0 37 57 46 98 8 34 4 37 -31 20z"/> <path d="M2093 1310 c-42 -19 -67 -37 -75 -55 -16 -36 -35 -26 -52 29 -6 18 -7 18 -27 0 -22 -19 -23 -19 -50 29 -14 24 -25 21 -50 -15 -13 -17 -16 -28 -8 -23 12 7 -26 -42 -43 -55 -4 -3 -21 -33 -39 -65 -17 -33 -38 -68 -47 -78 -8 -9 -13 -19 -11 -22 3 -2 25 26 49 63 52 78 99 132 113 132 6 0 21 -10 35 -22 23 -23 24 -23 38 -4 7 11 15 18 17 15 2 -2 11 -16 20 -31 22 -36 44 -35 65 1 18 32 122 90 122 68 0 -27 -63 -215 -91 -272 -19 -38 -23 -51 -10 -36 21 28 121 225 121 241 0 5 4 10 10 10 11 0 40 -53 40 -73 0 -8 -30 -75 -67 -148 -37 -74 -69 -138 -71 -144 -8 -23 59 64 79 103 12 23 29 48 37 55 12 9 12 6 -1 -14 -10 -14 -14 -29 -10 -32 3 -4 1 -7 -5 -7 -12 0 -37 -78 -28 -87 8 -9 84 154 108 230 l20 69 -46 67 c-72 105 -70 104 -143 71z m111 -65 c16 -25 16 -25 -9 -13 -14 6 -25 17 -25 25 0 21 16 15 34 -12z"/> <path d="M1584 1279 l-29 -32 28 18 c15 10 30 15 34 12 10 -10 -17 -68 -69 -146 -26 -41 -46 -77 -43 -80 4 -3 9 0 13 6 8 13 41 58 62 85 15 20 16 20 17 -1 1 -14 -2 -19 -10 -15 -9 5 -9 4 0 -6 6 -7 9 -19 6 -26 -3 -8 -1 -14 5 -14 24 0 44 185 24 218 -6 9 -16 3 -38 -19z"/> <path d="M790 1188 c-24 -40 -24 -49 -4 -117 20 -68 26 -62 10 9 -16 68 0 130 27 104 3 -3 2 -17 -3 -30 -13 -33 -4 -30 15 6 19 37 19 37 -5 50 -17 9 -23 6 -40 -22z"/> <path d="M1860 1208 c23 -10 23 -11 5 -16 -11 -2 -26 -9 -32 -14 -15 -12 -17 -32 -3 -23 6 3 14 -4 19 -17 6 -13 10 -17 10 -9 1 8 11 25 23 38 21 23 21 23 2 38 -10 8 -26 14 -34 14 -8 0 -4 -5 10 -11z"/> <path d="M2060 1207 c-17 -13 -53 -87 -47 -94 3 -2 14 17 26 42 13 28 26 43 33 39 6 -4 8 -3 4 4 -3 6 2 13 11 15 13 3 13 5 3 6 -8 0 -22 -5 -30 -12z"/> <path d="M891 1151 c-21 -29 -28 -66 -13 -74 4 -3 8 5 8 18 1 13 16 37 33 54 27 27 29 31 12 31 -11 0 -29 -13 -40 -29z"/> <path d="M2055 1160 c-8 -13 -25 -70 -20 -70 1 0 12 18 23 40 11 22 16 40 11 40 -4 0 -11 -5 -14 -10z"/> <path d="M1930 1150 c0 -5 7 -10 16 -10 9 0 23 -8 30 -17 11 -15 13 -16 14 -2 0 8 -5 20 -12 27 -15 15 -48 16 -48 2z"/> <path d="M2166 1144 c-3 -9 -6 -25 -6 -37 1 -22 1 -22 15 -3 17 22 20 56 6 56 -5 0 -12 -7 -15 -16z"/> <path d="M1908 1116 c-18 -13 -42 -65 -34 -74 3 -3 9 4 12 14 4 10 16 29 27 41 23 26 20 37 -5 19z"/> <path d="M588 1060 c-4 -23 0 -44 10 -62 19 -32 38 -39 22 -8 -6 12 -15 40 -19 63 l-7 42 -6 -35z"/> <path d="M1806 1061 c-10 -11 -16 -26 -14 -33 3 -8 11 -2 23 15 21 33 15 45 -9 18z"/> <path d="M2333 1018 c-6 -24 -10 -44 -8 -46 1 -1 12 13 23 33 12 19 17 35 11 35 -6 0 -7 5 -4 10 3 6 2 10 -2 10 -5 0 -14 -19 -20 -42z"/> <path d="M1936 998 c-15 -16 -26 -32 -22 -35 3 -4 6 -1 6 5 0 7 7 12 15 12 13 0 41 38 33 45 -2 1 -16 -11 -32 -27z"/> <path d="M2355 969 c-11 -29 -21 -57 -23 -61 -5 -11 260 -10 276 1 17 10 -56 18 -156 16 -63 0 -73 2 -78 18 -3 11 -2 22 3 26 5 3 7 17 4 30 -5 20 -9 16 -26 -30z"/> <path d="M572 968 c3 -29 0 -38 -12 -39 -8 -1 -19 -2 -25 -4 -5 -1 -64 -3 -130 -4 -82 -1 -115 -4 -105 -11 19 -12 310 -13 310 -1 0 5 -9 28 -21 52 l-20 44 3 -37z"/> <path d="M265 880 c6 -10 117 -64 124 -60 2 1 7 -3 10 -8 3 -5 25 -19 48 -31 23 -11 47 -29 52 -39 5 -10 9 -54 9 -97 0 -44 1 -136 2 -205 1 -69 1 -129 0 -135 -4 -19 0 -58 6 -53 3 3 7 117 9 252 l4 246 -44 30 c-62 42 -232 120 -220 100z"/> <path d="M2565 858 c-38 -17 -98 -49 -132 -70 l-63 -40 0 -218 c0 -119 -3 -232 -6 -249 -4 -18 -20 -45 -36 -62 -38 -38 -77 -38 -162 0 -35 16 -96 41 -133 54 l-68 25 -40 -46 c-22 -25 -44 -52 -49 -61 -9 -14 -8 -14 10 -1 10 8 31 27 47 42 16 17 38 28 55 28 29 0 110 -28 173 -61 21 -10 50 -20 64 -21 14 -1 25 -6 25 -9 0 -9 81 22 97 37 30 29 40 97 42 302 1 217 4 242 25 242 8 0 20 7 27 16 7 9 55 36 106 61 51 24 93 49 93 54 0 12 6 13 -75 -23z"/> <path d="M460 840 c109 -60 102 -36 103 -364 1 -157 3 -286 5 -286 1 0 29 13 62 30 130 66 409 160 473 160 9 0 38 -23 64 -52 53 -56 195 -178 266 -226 l45 -31 88 66 c49 37 128 105 175 150 47 46 91 83 96 83 39 0 257 -74 370 -126 44 -20 77 -18 99 7 17 19 19 42 22 265 l3 243 37 31 c20 17 57 41 82 53 l45 22 -155 3 c-137 2 -156 1 -167 -15 -7 -9 -13 -13 -13 -9 0 4 -7 0 -16 -8 -18 -18 -40 -21 -49 -6 -3 6 -18 11 -33 11 -17 1 -21 3 -9 6 9 2 17 9 17 14 0 11 -31 12 -56 2 -16 -6 -16 -7 2 -14 16 -6 15 -8 -8 -8 -15 -1 -39 -6 -53 -11 -15 -6 -32 -7 -38 -3 -7 5 -50 9 -97 10 -47 2 -158 5 -247 8 -92 2 -164 1 -168 -4 -3 -6 -18 -6 -38 0 -17 5 -76 8 -130 7 -78 -2 -102 -7 -114 -20 -14 -15 -17 -16 -38 -2 -36 24 -70 26 -91 6 -18 -17 -21 -17 -49 -2 -42 24 -102 26 -125 5 -23 -21 -52 -13 -48 12 3 17 -12 18 -182 20 l-185 3 55 -30z m118 1 c2 -1 -3 -8 -12 -16 -14 -14 -46 -11 -46 4 0 18 16 22 58 12z m1796 3 c13 -5 12 -10 -10 -26 -14 -11 -28 -17 -31 -14 -14 14 -53 -38 -53 -70 0 -29 -3 -32 -34 -36 -32 -4 -33 -3 -25 24 7 25 5 28 -17 28 -22 0 -24 -4 -24 -50 l0 -50 40 0 c33 0 42 -4 49 -23 5 -13 11 -102 13 -197 1 -96 1 -166 0 -156 -4 17 -5 17 -25 -1 -11 -10 -17 -12 -13 -5 5 8 -12 20 -53 38 l-61 27 0 59 c0 51 2 59 16 54 9 -3 19 -6 24 -6 5 0 10 -14 12 -31 2 -21 10 -34 23 -39 19 -7 20 -3 20 102 l0 109 -36 5 c-20 4 -41 9 -46 13 -6 3 -12 52 -15 109 l-4 102 86 0 c47 0 92 5 100 10 13 9 13 10 0 11 -10 0 -8 3 5 9 25 11 39 12 59 4z m-1616 -39 c8 -3 12 -29 12 -83 0 -63 -4 -84 -19 -104 -19 -24 -19 -24 0 -36 17 -11 19 -25 19 -127 0 -103 -2 -115 -19 -125 -41 -21 -43 -15 -40 102 3 74 0 113 -7 115 -21 7 -34 -50 -34 -151 0 -100 -1 -103 -25 -114 -14 -7 -27 -12 -28 -12 -1 0 -1 109 1 243 l4 244 -25 29 -25 29 87 -3 c47 -2 92 -5 99 -7z m196 -196 c9 -111 16 -203 14 -204 -2 -2 -15 -6 -31 -10 l-27 -7 0 91 c0 91 -5 103 -36 83 -7 -4 -15 -49 -19 -100 -7 -88 -9 -94 -33 -103 -13 -5 -27 -8 -29 -6 -2 3 3 66 12 141 9 75 17 177 18 226 l2 90 56 0 56 0 17 -201z m111 189 c2 -7 20 -62 39 -123 l35 -110 -2 123 -2 122 28 0 27 0 0 -179 c0 -188 -1 -191 -45 -191 -12 0 -39 73 -74 200 -7 27 -9 7 -10 -92 -1 -103 -4 -128 -15 -128 -8 0 -22 -3 -31 -6 -15 -6 -16 11 -13 195 l3 201 28 0 c15 0 29 -6 32 -12z m305 -23 c0 -31 -3 -35 -25 -35 -16 0 -25 6 -25 15 0 9 -9 15 -24 15 l-23 0 1 -130 c1 -128 1 -130 24 -130 21 0 22 4 22 71 0 49 -4 75 -15 85 -24 25 -17 34 25 34 l40 0 0 -115 c0 -84 -3 -117 -12 -120 -7 -2 -41 -5 -75 -7 l-63 -4 0 178 0 178 75 0 75 0 0 -35z m186 0 c0 -32 -3 -35 -28 -35 -18 0 -28 5 -28 15 0 8 -9 15 -20 15 -16 0 -20 -7 -20 -35 0 -32 3 -35 29 -35 24 0 28 -3 24 -20 -3 -13 -14 -20 -29 -20 -23 0 -24 -3 -24 -75 0 -68 2 -75 20 -75 13 0 20 7 20 20 0 16 7 20 30 20 27 0 30 -3 30 -34 0 -18 -6 -38 -12 -43 -7 -5 -42 -8 -78 -7 l-65 2 0 171 0 171 76 0 75 0 0 -35z m182 -29 c2 -45 -1 -63 -15 -78 -17 -19 -17 -20 0 -29 14 -8 17 -25 17 -106 0 -83 -2 -94 -16 -89 -9 3 -20 6 -25 6 -5 0 -9 36 -9 79 0 81 -9 102 -35 81 -11 -9 -15 -33 -15 -81 0 -67 -1 -69 -25 -69 l-24 0 -3 175 -3 176 75 -3 75 -3 3 -59z m182 51 c0 -7 -12 -81 -26 -163 -15 -82 -29 -164 -31 -181 -4 -27 -10 -33 -29 -33 -43 0 -43 1 22 323 5 22 2 27 -15 27 -14 0 -21 -6 -21 -20 0 -14 -7 -20 -24 -20 -21 0 -24 6 -28 40 l-4 40 78 0 c58 0 78 -3 78 -13z m180 -30 c0 -52 -3 -56 -35 -49 -16 3 -25 11 -25 23 0 12 -7 19 -20 19 -17 0 -20 -7 -20 -45 l0 -45 40 0 c29 0 42 -5 50 -19 12 -23 14 -288 2 -295 -5 -3 -39 5 -75 16 l-67 22 0 54 c0 31 -4 51 -9 47 -6 -3 -8 -32 -6 -64 l3 -59 -37 5 c-48 7 -56 16 -38 44 8 13 18 42 22 64 3 22 13 64 21 93 14 46 17 50 30 37 9 -8 25 -15 37 -15 38 0 51 -16 53 -64 1 -25 0 -46 -2 -46 -1 0 -14 4 -28 10 -15 5 -28 5 -31 0 -3 -5 5 -10 17 -12 17 -2 23 -10 23 -28 0 -17 6 -26 20 -28 20 -3 21 2 20 85 0 48 -4 91 -10 95 -5 4 -27 8 -47 8 l-38 0 0 64 c0 35 -3 78 -6 95 l-6 31 81 0 81 0 0 -43z m-284 -98 c0 -29 -6 -69 -19 -126 -7 -29 -17 -24 -18 8 0 30 -4 61 -11 86 -1 4 2 22 6 40 10 44 41 39 42 -8z m492 -9 l-2 -41 -25 25 c-20 21 -22 27 -11 40 24 30 41 19 38 -24z m-758 -35 c0 -41 -2 -45 -24 -45 -35 0 -38 24 -8 58 15 17 28 31 30 31 1 1 2 -19 2 -44z m621 -60 c29 -6 28 -4 31 -66 2 -43 -1 -53 -12 -50 -28 6 -45 9 -58 10 -7 1 -11 12 -10 29 1 15 -1 32 -4 37 -8 15 10 57 22 50 5 -3 20 -8 31 -10z m-692 -131 c30 -2 62 1 73 7 13 7 24 5 41 -6 13 -8 26 -13 28 -11 8 9 59 15 59 7 0 -4 -5 -12 -12 -19 -9 -9 -8 -12 7 -12 11 0 31 -3 44 -7 17 -4 22 -3 17 6 -4 7 2 20 16 31 23 19 23 19 46 -6 13 -13 27 -22 33 -19 5 4 9 1 9 -4 0 -6 -6 -11 -12 -11 -7 0 -59 -44 -115 -98 -121 -115 -122 -116 -153 -132 -13 -7 -34 -23 -48 -37 -23 -23 -57 -24 -72 -3 -3 4 -10 9 -17 11 -19 7 -104 80 -201 174 -64 62 -102 92 -123 95 -28 5 -29 6 -15 25 14 19 15 19 35 1 13 -12 27 -16 38 -11 10 4 55 9 101 11 46 2 91 8 100 14 9 5 28 7 42 3 14 -3 49 -7 79 -9z m-579 -79 c-7 -8 -19 -15 -26 -15 -12 0 -11 5 2 26 11 17 20 22 27 15 7 -7 6 -15 -3 -26z m1239 -53 c-9 -4 -69 26 -69 34 0 3 5 2 10 -1 6 -3 10 -1 10 5 0 6 13 1 28 -12 16 -13 25 -24 21 -26z m-1508 -59 c2 1 -2 -4 -10 -10 -27 -23 -41 -15 -38 22 l2 34 21 -24 c12 -14 23 -24 25 -22z"/> <path d="M693 752 c-22 -3 -23 -8 -23 -85 l0 -82 26 38 c20 30 24 47 22 85 -3 42 -5 47 -25 44z"/> <path d="M877 725 c-12 -67 -9 -105 8 -105 17 0 19 37 6 105 l-7 40 -7 -40z"/> <path d="M1150 573 c0 -25 2 -44 4 -42 8 10 13 89 5 89 -5 0 -9 -21 -9 -47z"/> <path d="M1640 715 l0 -55 25 16 c20 13 25 25 25 55 0 35 -3 39 -25 39 -24 0 -25 -3 -25 -55z"/> <path d="M1570 321 c-76 -92 -95 -107 -115 -91 -8 7 -19 10 -25 8 -6 -2 3 -11 19 -21 l29 -17 65 72 c82 92 111 128 100 128 -4 0 -37 -36 -73 -79z"/> <path d="M1665 309 c-38 -40 -99 -94 -135 -122 -66 -51 -67 -52 -15 -27 46 23 248 221 223 220 -2 0 -34 -32 -73 -71z"/> <path d="M1070 319 c0 -15 151 -187 179 -203 13 -8 13 -6 -2 11 -9 11 -16 22 -14 24 2 2 -34 42 -79 89 -46 47 -84 82 -84 79z"/> <path d="M1799 252 c-35 -38 -79 -91 -97 -118 -30 -44 -26 -41 43 30 41 43 87 94 102 112 46 61 18 46 -48 -24z"/> <path d="M850 271 c-58 -21 -150 -61 -205 -89 -112 -57 -118 -71 -6 -17 39 19 77 35 84 35 7 0 17 4 23 9 5 4 29 15 54 24 25 9 69 25 98 36 l53 21 44 -44 c24 -24 47 -41 50 -38 3 3 5 1 5 -5 0 -6 7 -14 16 -17 9 -3 -10 23 -41 59 -32 36 -60 65 -64 64 -3 0 -53 -17 -111 -38z"/> <path d="M1161 267 c19 -26 39 -56 45 -68 6 -11 15 -20 20 -21 8 0 49 -30 97 -70 11 -10 24 -18 28 -18 4 0 14 -6 21 -13 7 -7 33 -25 57 -39 43 -25 46 -26 75 -11 17 9 57 35 89 59 31 24 60 44 63 44 12 0 83 73 114 118 33 46 32 46 -36 -20 -75 -72 -239 -198 -259 -198 -10 0 -179 120 -195 139 -3 3 -39 38 -79 76 -71 67 -73 68 -40 22z"/> <path d="M1049 252 c16 -30 85 -97 136 -131 67 -46 72 -46 20 0 -27 24 -77 69 -109 99 -34 32 -54 45 -47 32z"/> <path d="M1795 173 c-55 -53 -93 -92 -84 -87 36 20 109 78 109 86 0 5 4 7 9 4 8 -5 77 82 70 89 -2 1 -49 -40 -104 -92z"/> </g> </svg> 